<svg xmlns="http://www.w3.org/2000/svg" width="480" height="600" viewBox="0 0 480 600">
  <rect width="480" height="600" fill="#6B3F2A"/>
  <g><path d="M -100 -100 C -50 -125, 0 -75, 50 -100 S 150 -125, 200 -100 S 300 -75, 350 -100 S 450 -125, 500 -100 S 600 -75, 650 -100" stroke="#8f5a2c" stroke-width="2" fill="none" opacity="0.45"/><path d="M -100 -50 C -50 -75, 0 -25, 50 -50 S 150 -75, 200 -50 S 300 -25, 350 -50 S 450 -75, 500 -50 S 600 -25, 650 -50" stroke="#8f5a2c" stroke-width="2" fill="none" opacity="0.45"/><path d="M -100 0 C -50 -25, 0 25, 50 0 S 150 -25, 200 0 S 300 25, 350 0 S 450 -25, 500 0 S 600 25, 650 0" stroke="#8f5a2c" stroke-width="2" fill="none" opacity="0.45"/><path d="M -100 50 C -50 25, 0 75, 50 50 S 150 25, 200 50 S 300 75, 350 50 S 450 25, 500 50 S 600 75, 650 50" stroke="#8f5a2c" stroke-width="2" fill="none" opacity="0.45"/><path d="M -100 100 C -50 75, 0 125, 50 100 S 150 75, 200 100 S 300 125, 350 100 S 450 75, 500 100 S 600 125, 650 100" stroke="#8f5a2c" stroke-width="2" fill="none" opacity="0.45"/><path d="M -100 150 C -50 125, 0 175, 50 150 S 150 125, 200 150 S 300 175, 350 150 S 450 125, 500 150 S 600 175, 650 150" stroke="#8f5a2c" stroke-width="2" fill="none" opacity="0.45"/><path d="M -100 200 C -50 175, 0 225, 50 200 S 150 175, 200 200 S 300 225, 350 200 S 450 175, 500 200 S 600 225, 650 200" stroke="#8f5a2c" stroke-width="2" fill="none" opacity="0.45"/><path d="M -100 250 C -50 225, 0 275, 50 250 S 150 225, 200 250 S 300 275, 350 250 S 450 225, 500 250 S 600 275, 650 250" stroke="#8f5a2c" stroke-width="2" fill="none" opacity="0.45"/><path d="M -100 300 C -50 275, 0 325, 50 300 S 150 275, 200 300 S 300 325, 350 300 S 450 275, 500 300 S 600 325, 650 300" stroke="#8f5a2c" stroke-width="2" fill="none" opacity="0.45"/><path d="M -100 350 C -50 325, 0 375, 50 350 S 150 325, 200 350 S 300 375, 350 350 S 450 325, 500 350 S 600 375, 650 350" stroke="#8f5a2c" stroke-width="2" fill="none" opacity="0.45"/><path d="M -100 400 C -50 375, 0 425, 50 400 S 150 375, 200 400 S 300 425, 350 400 S 450 375, 500 400 S 600 425, 650 400" stroke="#8f5a2c" stroke-width="2" fill="none" opacity="0.45"/><path d="M -100 450 C -50 425, 0 475, 50 450 S 150 425, 200 450 S 300 475, 350 450 S 450 425, 500 450 S 600 475, 650 450" stroke="#8f5a2c" stroke-width="2" fill="none" opacity="0.45"/><path d="M -100 500 C -50 475, 0 525, 50 500 S 150 475, 200 500 S 300 525, 350 500 S 450 475, 500 500 S 600 525, 650 500" stroke="#8f5a2c" stroke-width="2" fill="none" opacity="0.45"/><path d="M -100 550 C -50 525, 0 575, 50 550 S 150 525, 200 550 S 300 575, 350 550 S 450 525, 500 550 S 600 575, 650 550" stroke="#8f5a2c" stroke-width="2" fill="none" opacity="0.45"/><path d="M -100 600 C -50 575, 0 625, 50 600 S 150 575, 200 600 S 300 625, 350 600 S 450 575, 500 600 S 600 625, 650 600" stroke="#8f5a2c" stroke-width="2" fill="none" opacity="0.45"/><path d="M -100 650 C -50 625, 0 675, 50 650 S 150 625, 200 650 S 300 675, 350 650 S 450 625, 500 650 S 600 675, 650 650" stroke="#8f5a2c" stroke-width="2" fill="none" opacity="0.45"/><path d="M -100 700 C -50 675, 0 725, 50 700 S 150 675, 200 700 S 300 725, 350 700 S 450 675, 500 700 S 600 725, 650 700" stroke="#8f5a2c" stroke-width="2" fill="none" opacity="0.45"/><path d="M -100 750 C -50 725, 0 775, 50 750 S 150 725, 200 750 S 300 775, 350 750 S 450 725, 500 750 S 600 775, 650 750" stroke="#8f5a2c" stroke-width="2" fill="none" opacity="0.45"/></g>
  <circle cx="240" cy="240" r="70" fill="none" stroke="#F1EADA" stroke-width="2" opacity="0.6"/>
  <text x="240" y="560" text-anchor="middle" font-family="sans-serif" font-size="15" fill="#F1EADA" opacity="0.85">Ganti dengan foto asli</text>
</svg>