<svg xmlns="http://www.w3.org/2000/svg" width="1400" height="700" viewBox="0 0 1400 700">
  <defs>
    <linearGradient id="g" x1="0" y1="0" x2="1" y2="1">
      <stop offset="0" stop-color="#14213D"/>
      <stop offset="1" stop-color="#2a3f6b"/>
    </linearGradient>
  </defs>
  <rect width="1400" height="700" fill="url(#g)"/>
  <g><path d="M -200 -140 C -120 -180, -40 -100, 40 -140 S 200 -180, 280 -140 S 440 -100, 520 -140 S 680 -180, 760 -140 S 920 -100, 1000 -140 S 1160 -180, 1240 -140 S 1400 -100, 1480 -140" stroke="#C9A857" stroke-width="2.4" fill="none" opacity="0.28"/><path d="M -200 -70 C -120 -110, -40 -30, 40 -70 S 200 -110, 280 -70 S 440 -30, 520 -70 S 680 -110, 760 -70 S 920 -30, 1000 -70 S 1160 -110, 1240 -70 S 1400 -30, 1480 -70" stroke="#C9A857" stroke-width="2.4" fill="none" opacity="0.28"/><path d="M -200 0 C -120 -40, -40 40, 40 0 S 200 -40, 280 0 S 440 40, 520 0 S 680 -40, 760 0 S 920 40, 1000 0 S 1160 -40, 1240 0 S 1400 40, 1480 0" stroke="#C9A857" stroke-width="2.4" fill="none" opacity="0.28"/><path d="M -200 70 C -120 30, -40 110, 40 70 S 200 30, 280 70 S 440 110, 520 70 S 680 30, 760 70 S 920 110, 1000 70 S 1160 30, 1240 70 S 1400 110, 1480 70" stroke="#C9A857" stroke-width="2.4" fill="none" opacity="0.28"/><path d="M -200 140 C -120 100, -40 180, 40 140 S 200 100, 280 140 S 440 180, 520 140 S 680 100, 760 140 S 920 180, 1000 140 S 1160 100, 1240 140 S 1400 180, 1480 140" stroke="#C9A857" stroke-width="2.4" fill="none" opacity="0.28"/><path d="M -200 210 C -120 170, -40 250, 40 210 S 200 170, 280 210 S 440 250, 520 210 S 680 170, 760 210 S 920 250, 1000 210 S 1160 170, 1240 210 S 1400 250, 1480 210" stroke="#C9A857" stroke-width="2.4" fill="none" opacity="0.28"/><path d="M -200 280 C -120 240, -40 320, 40 280 S 200 240, 280 280 S 440 320, 520 280 S 680 240, 760 280 S 920 320, 1000 280 S 1160 240, 1240 280 S 1400 320, 1480 280" stroke="#C9A857" stroke-width="2.4" fill="none" opacity="0.28"/><path d="M -200 350 C -120 310, -40 390, 40 350 S 200 310, 280 350 S 440 390, 520 350 S 680 310, 760 350 S 920 390, 1000 350 S 1160 310, 1240 350 S 1400 390, 1480 350" stroke="#C9A857" stroke-width="2.4" fill="none" opacity="0.28"/><path d="M -200 420 C -120 380, -40 460, 40 420 S 200 380, 280 420 S 440 460, 520 420 S 680 380, 760 420 S 920 460, 1000 420 S 1160 380, 1240 420 S 1400 460, 1480 420" stroke="#C9A857" stroke-width="2.4" fill="none" opacity="0.28"/><path d="M -200 490 C -120 450, -40 530, 40 490 S 200 450, 280 490 S 440 530, 520 490 S 680 450, 760 490 S 920 530, 1000 490 S 1160 450, 1240 490 S 1400 530, 1480 490" stroke="#C9A857" stroke-width="2.4" fill="none" opacity="0.28"/><path d="M -200 560 C -120 520, -40 600, 40 560 S 200 520, 280 560 S 440 600, 520 560 S 680 520, 760 560 S 920 600, 1000 560 S 1160 520, 1240 560 S 1400 600, 1480 560" stroke="#C9A857" stroke-width="2.4" fill="none" opacity="0.28"/><path d="M -200 630 C -120 590, -40 670, 40 630 S 200 590, 280 630 S 440 670, 520 630 S 680 590, 760 630 S 920 670, 1000 630 S 1160 590, 1240 630 S 1400 670, 1480 630" stroke="#C9A857" stroke-width="2.4" fill="none" opacity="0.28"/><path d="M -200 700 C -120 660, -40 740, 40 700 S 200 660, 280 700 S 440 740, 520 700 S 680 660, 760 700 S 920 740, 1000 700 S 1160 660, 1240 700 S 1400 740, 1480 700" stroke="#C9A857" stroke-width="2.4" fill="none" opacity="0.28"/><path d="M -200 770 C -120 730, -40 810, 40 770 S 200 730, 280 770 S 440 810, 520 770 S 680 730, 760 770 S 920 810, 1000 770 S 1160 730, 1240 770 S 1400 810, 1480 770" stroke="#C9A857" stroke-width="2.4" fill="none" opacity="0.28"/><path d="M -200 840 C -120 800, -40 880, 40 840 S 200 800, 280 840 S 440 880, 520 840 S 680 800, 760 840 S 920 880, 1000 840 S 1160 800, 1240 840 S 1400 880, 1480 840" stroke="#C9A857" stroke-width="2.4" fill="none" opacity="0.28"/><path d="M -200 910 C -120 870, -40 950, 40 910 S 200 870, 280 910 S 440 950, 520 910 S 680 870, 760 910 S 920 950, 1000 910 S 1160 870, 1240 910 S 1400 950, 1480 910" stroke="#C9A857" stroke-width="2.4" fill="none" opacity="0.28"/><path d="M -200 980 C -120 940, -40 1020, 40 980 S 200 940, 280 980 S 440 1020, 520 980 S 680 940, 760 980 S 920 1020, 1000 980 S 1160 940, 1240 980 S 1400 1020, 1480 980" stroke="#C9A857" stroke-width="2.4" fill="none" opacity="0.28"/><path d="M -200 1050 C -120 1010, -40 1090, 40 1050 S 200 1010, 280 1050 S 440 1090, 520 1050 S 680 1010, 760 1050 S 920 1090, 1000 1050 S 1160 1010, 1240 1050 S 1400 1090, 1480 1050" stroke="#C9A857" stroke-width="2.4" fill="none" opacity="0.28"/><path d="M -200 1120 C -120 1080, -40 1160, 40 1120 S 200 1080, 280 1120 S 440 1160, 520 1120 S 680 1080, 760 1120 S 920 1160, 1000 1120 S 1160 1080, 1240 1120 S 1400 1160, 1480 1120" stroke="#C9A857" stroke-width="2.4" fill="none" opacity="0.28"/><path d="M -200 1190 C -120 1150, -40 1230, 40 1190 S 200 1150, 280 1190 S 440 1230, 520 1190 S 680 1150, 760 1190 S 920 1230, 1000 1190 S 1160 1150, 1240 1190 S 1400 1230, 1480 1190" stroke="#C9A857" stroke-width="2.4" fill="none" opacity="0.28"/><path d="M -200 1260 C -120 1220, -40 1300, 40 1260 S 200 1220, 280 1260 S 440 1300, 520 1260 S 680 1220, 760 1260 S 920 1300, 1000 1260 S 1160 1220, 1240 1260 S 1400 1300, 1480 1260" stroke="#C9A857" stroke-width="2.4" fill="none" opacity="0.28"/><path d="M -200 1330 C -120 1290, -40 1370, 40 1330 S 200 1290, 280 1330 S 440 1370, 520 1330 S 680 1290, 760 1330 S 920 1370, 1000 1330 S 1160 1290, 1240 1330 S 1400 1370, 1480 1330" stroke="#C9A857" stroke-width="2.4" fill="none" opacity="0.28"/></g>
</svg>