<svg xmlns="http://www.w3.org/2000/svg" width="600" height="600" viewBox="0 0 600 600">
  <rect width="600" height="600" fill="#14213D"/>
  <g><path d="M -100 -120 C -50 -150, 0 -90, 50 -120 S 150 -150, 200 -120 S 300 -90, 350 -120 S 450 -150, 500 -120 S 600 -90, 650 -120 S 750 -150, 800 -120" stroke="#1d2f54" stroke-width="3" fill="none" opacity="0.55"/><path d="M -100 -60 C -50 -90, 0 -30, 50 -60 S 150 -90, 200 -60 S 300 -30, 350 -60 S 450 -90, 500 -60 S 600 -30, 650 -60 S 750 -90, 800 -60" stroke="#1d2f54" stroke-width="3" fill="none" opacity="0.55"/><path d="M -100 0 C -50 -30, 0 30, 50 0 S 150 -30, 200 0 S 300 30, 350 0 S 450 -30, 500 0 S 600 30, 650 0 S 750 -30, 800 0" stroke="#1d2f54" stroke-width="3" fill="none" opacity="0.55"/><path d="M -100 60 C -50 30, 0 90, 50 60 S 150 30, 200 60 S 300 90, 350 60 S 450 30, 500 60 S 600 90, 650 60 S 750 30, 800 60" stroke="#1d2f54" stroke-width="3" fill="none" opacity="0.55"/><path d="M -100 120 C -50 90, 0 150, 50 120 S 150 90, 200 120 S 300 150, 350 120 S 450 90, 500 120 S 600 150, 650 120 S 750 90, 800 120" stroke="#1d2f54" stroke-width="3" fill="none" opacity="0.55"/><path d="M -100 180 C -50 150, 0 210, 50 180 S 150 150, 200 180 S 300 210, 350 180 S 450 150, 500 180 S 600 210, 650 180 S 750 150, 800 180" stroke="#1d2f54" stroke-width="3" fill="none" opacity="0.55"/><path d="M -100 240 C -50 210, 0 270, 50 240 S 150 210, 200 240 S 300 270, 350 240 S 450 210, 500 240 S 600 270, 650 240 S 750 210, 800 240" stroke="#1d2f54" stroke-width="3" fill="none" opacity="0.55"/><path d="M -100 300 C -50 270, 0 330, 50 300 S 150 270, 200 300 S 300 330, 350 300 S 450 270, 500 300 S 600 330, 650 300 S 750 270, 800 300" stroke="#1d2f54" stroke-width="3" fill="none" opacity="0.55"/><path d="M -100 360 C -50 330, 0 390, 50 360 S 150 330, 200 360 S 300 390, 350 360 S 450 330, 500 360 S 600 390, 650 360 S 750 330, 800 360" stroke="#1d2f54" stroke-width="3" fill="none" opacity="0.55"/><path d="M -100 420 C -50 390, 0 450, 50 420 S 150 390, 200 420 S 300 450, 350 420 S 450 390, 500 420 S 600 450, 650 420 S 750 390, 800 420" stroke="#1d2f54" stroke-width="3" fill="none" opacity="0.55"/><path d="M -100 480 C -50 450, 0 510, 50 480 S 150 450, 200 480 S 300 510, 350 480 S 450 450, 500 480 S 600 510, 650 480 S 750 450, 800 480" stroke="#1d2f54" stroke-width="3" fill="none" opacity="0.55"/><path d="M -100 540 C -50 510, 0 570, 50 540 S 150 510, 200 540 S 300 570, 350 540 S 450 510, 500 540 S 600 570, 650 540 S 750 510, 800 540" stroke="#1d2f54" stroke-width="3" fill="none" opacity="0.55"/><path d="M -100 600 C -50 570, 0 630, 50 600 S 150 570, 200 600 S 300 630, 350 600 S 450 570, 500 600 S 600 630, 650 600 S 750 570, 800 600" stroke="#1d2f54" stroke-width="3" fill="none" opacity="0.55"/><path d="M -100 660 C -50 630, 0 690, 50 660 S 150 630, 200 660 S 300 690, 350 660 S 450 630, 500 660 S 600 690, 650 660 S 750 630, 800 660" stroke="#1d2f54" stroke-width="3" fill="none" opacity="0.55"/><path d="M -100 720 C -50 690, 0 750, 50 720 S 150 690, 200 720 S 300 750, 350 720 S 450 690, 500 720 S 600 750, 650 720 S 750 690, 800 720" stroke="#1d2f54" stroke-width="3" fill="none" opacity="0.55"/><path d="M -100 780 C -50 750, 0 810, 50 780 S 150 750, 200 780 S 300 810, 350 780 S 450 750, 500 780 S 600 810, 650 780 S 750 750, 800 780" stroke="#1d2f54" stroke-width="3" fill="none" opacity="0.55"/></g>
  <g><circle cx="207" cy="210" r="3" fill="#C9A857" opacity="0.35"/><circle cx="557" cy="58" r="2" fill="#C9A857" opacity="0.35"/><circle cx="488" cy="42" r="4" fill="#C9A857" opacity="0.35"/><circle cx="514" cy="175" r="4" fill="#C9A857" opacity="0.35"/><circle cx="439" cy="248" r="4" fill="#C9A857" opacity="0.35"/><circle cx="418" cy="206" r="4" fill="#C9A857" opacity="0.35"/><circle cx="29" cy="227" r="2" fill="#C9A857" opacity="0.35"/><circle cx="132" cy="221" r="4" fill="#C9A857" opacity="0.35"/><circle cx="494" cy="398" r="3" fill="#C9A857" opacity="0.35"/><circle cx="249" cy="598" r="2" fill="#C9A857" opacity="0.35"/><circle cx="31" cy="300" r="4" fill="#C9A857" opacity="0.35"/><circle cx="549" cy="127" r="4" fill="#C9A857" opacity="0.35"/><circle cx="44" cy="7" r="3" fill="#C9A857" opacity="0.35"/><circle cx="574" cy="321" r="3" fill="#C9A857" opacity="0.35"/><circle cx="433" cy="442" r="4" fill="#C9A857" opacity="0.35"/><circle cx="205" cy="57" r="3" fill="#C9A857" opacity="0.35"/><circle cx="202" cy="393" r="3" fill="#C9A857" opacity="0.35"/><circle cx="530" cy="159" r="2" fill="#C9A857" opacity="0.35"/><circle cx="101" cy="76" r="2" fill="#C9A857" opacity="0.35"/><circle cx="558" cy="561" r="4" fill="#C9A857" opacity="0.35"/><circle cx="45" cy="48" r="3" fill="#C9A857" opacity="0.35"/><circle cx="223" cy="378" r="4" fill="#C9A857" opacity="0.35"/><circle cx="92" cy="556" r="3" fill="#C9A857" opacity="0.35"/><circle cx="106" cy="417" r="2" fill="#C9A857" opacity="0.35"/><circle cx="430" cy="468" r="4" fill="#C9A857" opacity="0.35"/><circle cx="76" cy="41" r="3" fill="#C9A857" opacity="0.35"/><circle cx="98" cy="245" r="2" fill="#C9A857" opacity="0.35"/><circle cx="136" cy="283" r="3" fill="#C9A857" opacity="0.35"/><circle cx="446" cy="355" r="4" fill="#C9A857" opacity="0.35"/><circle cx="480" cy="399" r="4" fill="#C9A857" opacity="0.35"/><circle cx="33" cy="45" r="2" fill="#C9A857" opacity="0.35"/><circle cx="581" cy="8" r="4" fill="#C9A857" opacity="0.35"/><circle cx="114" cy="487" r="2" fill="#C9A857" opacity="0.35"/><circle cx="595" cy="187" r="4" fill="#C9A857" opacity="0.35"/><circle cx="34" cy="19" r="3" fill="#C9A857" opacity="0.35"/><circle cx="49" cy="299" r="3" fill="#C9A857" opacity="0.35"/><circle cx="167" cy="65" r="3" fill="#C9A857" opacity="0.35"/><circle cx="172" cy="100" r="2" fill="#C9A857" opacity="0.35"/><circle cx="33" cy="21" r="4" fill="#C9A857" opacity="0.35"/><circle cx="433" cy="558" r="2" fill="#C9A857" opacity="0.35"/></g>
</svg>