<svg xmlns="http://www.w3.org/2000/svg" width="600" height="600" viewBox="0 0 600 600">
  <rect width="600" height="600" fill="#6B3F2A"/>
  <g><path d="M -100 -120 C -50 -150, 0 -90, 50 -120 S 150 -150, 200 -120 S 300 -90, 350 -120 S 450 -150, 500 -120 S 600 -90, 650 -120 S 750 -150, 800 -120" stroke="#8f5a2c" stroke-width="3" fill="none" opacity="0.55"/><path d="M -100 -60 C -50 -90, 0 -30, 50 -60 S 150 -90, 200 -60 S 300 -30, 350 -60 S 450 -90, 500 -60 S 600 -30, 650 -60 S 750 -90, 800 -60" stroke="#8f5a2c" stroke-width="3" fill="none" opacity="0.55"/><path d="M -100 0 C -50 -30, 0 30, 50 0 S 150 -30, 200 0 S 300 30, 350 0 S 450 -30, 500 0 S 600 30, 650 0 S 750 -30, 800 0" stroke="#8f5a2c" stroke-width="3" fill="none" opacity="0.55"/><path d="M -100 60 C -50 30, 0 90, 50 60 S 150 30, 200 60 S 300 90, 350 60 S 450 30, 500 60 S 600 90, 650 60 S 750 30, 800 60" stroke="#8f5a2c" stroke-width="3" fill="none" opacity="0.55"/><path d="M -100 120 C -50 90, 0 150, 50 120 S 150 90, 200 120 S 300 150, 350 120 S 450 90, 500 120 S 600 150, 650 120 S 750 90, 800 120" stroke="#8f5a2c" stroke-width="3" fill="none" opacity="0.55"/><path d="M -100 180 C -50 150, 0 210, 50 180 S 150 150, 200 180 S 300 210, 350 180 S 450 150, 500 180 S 600 210, 650 180 S 750 150, 800 180" stroke="#8f5a2c" stroke-width="3" fill="none" opacity="0.55"/><path d="M -100 240 C -50 210, 0 270, 50 240 S 150 210, 200 240 S 300 270, 350 240 S 450 210, 500 240 S 600 270, 650 240 S 750 210, 800 240" stroke="#8f5a2c" stroke-width="3" fill="none" opacity="0.55"/><path d="M -100 300 C -50 270, 0 330, 50 300 S 150 270, 200 300 S 300 330, 350 300 S 450 270, 500 300 S 600 330, 650 300 S 750 270, 800 300" stroke="#8f5a2c" stroke-width="3" fill="none" opacity="0.55"/><path d="M -100 360 C -50 330, 0 390, 50 360 S 150 330, 200 360 S 300 390, 350 360 S 450 330, 500 360 S 600 390, 650 360 S 750 330, 800 360" stroke="#8f5a2c" stroke-width="3" fill="none" opacity="0.55"/><path d="M -100 420 C -50 390, 0 450, 50 420 S 150 390, 200 420 S 300 450, 350 420 S 450 390, 500 420 S 600 450, 650 420 S 750 390, 800 420" stroke="#8f5a2c" stroke-width="3" fill="none" opacity="0.55"/><path d="M -100 480 C -50 450, 0 510, 50 480 S 150 450, 200 480 S 300 510, 350 480 S 450 450, 500 480 S 600 510, 650 480 S 750 450, 800 480" stroke="#8f5a2c" stroke-width="3" fill="none" opacity="0.55"/><path d="M -100 540 C -50 510, 0 570, 50 540 S 150 510, 200 540 S 300 570, 350 540 S 450 510, 500 540 S 600 570, 650 540 S 750 510, 800 540" stroke="#8f5a2c" stroke-width="3" fill="none" opacity="0.55"/><path d="M -100 600 C -50 570, 0 630, 50 600 S 150 570, 200 600 S 300 630, 350 600 S 450 570, 500 600 S 600 630, 650 600 S 750 570, 800 600" stroke="#8f5a2c" stroke-width="3" fill="none" opacity="0.55"/><path d="M -100 660 C -50 630, 0 690, 50 660 S 150 630, 200 660 S 300 690, 350 660 S 450 630, 500 660 S 600 690, 650 660 S 750 630, 800 660" stroke="#8f5a2c" stroke-width="3" fill="none" opacity="0.55"/><path d="M -100 720 C -50 690, 0 750, 50 720 S 150 690, 200 720 S 300 750, 350 720 S 450 690, 500 720 S 600 750, 650 720 S 750 690, 800 720" stroke="#8f5a2c" stroke-width="3" fill="none" opacity="0.55"/><path d="M -100 780 C -50 750, 0 810, 50 780 S 150 750, 200 780 S 300 810, 350 780 S 450 750, 500 780 S 600 810, 650 780 S 750 750, 800 780" stroke="#8f5a2c" stroke-width="3" fill="none" opacity="0.55"/></g>
  <g><circle cx="265" cy="297" r="4" fill="#F1EADA" opacity="0.35"/><circle cx="190" cy="236" r="4" fill="#F1EADA" opacity="0.35"/><circle cx="150" cy="230" r="4" fill="#F1EADA" opacity="0.35"/><circle cx="191" cy="133" r="2" fill="#F1EADA" opacity="0.35"/><circle cx="544" cy="219" r="4" fill="#F1EADA" opacity="0.35"/><circle cx="301" cy="30" r="3" fill="#F1EADA" opacity="0.35"/><circle cx="129" cy="14" r="3" fill="#F1EADA" opacity="0.35"/><circle cx="150" cy="86" r="3" fill="#F1EADA" opacity="0.35"/><circle cx="461" cy="447" r="2" fill="#F1EADA" opacity="0.35"/><circle cx="262" cy="364" r="2" fill="#F1EADA" opacity="0.35"/><circle cx="498" cy="562" r="4" fill="#F1EADA" opacity="0.35"/><circle cx="439" cy="372" r="3" fill="#F1EADA" opacity="0.35"/><circle cx="321" cy="120" r="3" fill="#F1EADA" opacity="0.35"/><circle cx="269" cy="459" r="4" fill="#F1EADA" opacity="0.35"/><circle cx="138" cy="450" r="4" fill="#F1EADA" opacity="0.35"/><circle cx="454" cy="548" r="2" fill="#F1EADA" opacity="0.35"/><circle cx="300" cy="207" r="2" fill="#F1EADA" opacity="0.35"/><circle cx="535" cy="364" r="3" fill="#F1EADA" opacity="0.35"/><circle cx="380" cy="470" r="3" fill="#F1EADA" opacity="0.35"/><circle cx="286" cy="405" r="2" fill="#F1EADA" opacity="0.35"/><circle cx="591" cy="502" r="4" fill="#F1EADA" opacity="0.35"/><circle cx="241" cy="578" r="2" fill="#F1EADA" opacity="0.35"/><circle cx="199" cy="375" r="2" fill="#F1EADA" opacity="0.35"/><circle cx="75" cy="440" r="4" fill="#F1EADA" opacity="0.35"/><circle cx="474" cy="399" r="2" fill="#F1EADA" opacity="0.35"/><circle cx="434" cy="44" r="2" fill="#F1EADA" opacity="0.35"/><circle cx="145" cy="509" r="4" fill="#F1EADA" opacity="0.35"/><circle cx="455" cy="259" r="2" fill="#F1EADA" opacity="0.35"/><circle cx="423" cy="257" r="3" fill="#F1EADA" opacity="0.35"/><circle cx="207" cy="383" r="4" fill="#F1EADA" opacity="0.35"/><circle cx="140" cy="243" r="4" fill="#F1EADA" opacity="0.35"/><circle cx="508" cy="216" r="4" fill="#F1EADA" opacity="0.35"/><circle cx="43" cy="594" r="4" fill="#F1EADA" opacity="0.35"/><circle cx="39" cy="367" r="4" fill="#F1EADA" opacity="0.35"/><circle cx="583" cy="349" r="2" fill="#F1EADA" opacity="0.35"/><circle cx="302" cy="197" r="2" fill="#F1EADA" opacity="0.35"/><circle cx="568" cy="114" r="2" fill="#F1EADA" opacity="0.35"/><circle cx="171" cy="70" r="3" fill="#F1EADA" opacity="0.35"/><circle cx="569" cy="556" r="4" fill="#F1EADA" opacity="0.35"/><circle cx="39" cy="450" r="3" fill="#F1EADA" opacity="0.35"/></g>
</svg>